<svg width="24" height="25" viewBox="0 0 24 25" fill="none" xmlns="http://www.w3.org/2000/svg">
<path d="M12 2.5C6.48 2.5 2 6.98 2 12.5C2 18.02 6.48 22.5 12 22.5H17V20.5H12C7.66 20.5 4 16.84 4 12.5C4 8.16 7.66 4.5 12 4.5C16.34 4.5 20 8.16 20 12.5V13.93C20 14.72 19.29 15.5 18.5 15.5C17.71 15.5 17 14.72 17 13.93V12.5C17 9.74 14.76 7.5 12 7.5C9.24 7.5 7 9.74 7 12.5C7 15.26 9.24 17.5 12 17.5C13.38 17.5 14.64 16.94 15.54 16.03C16.19 16.92 17.31 17.5 18.5 17.5C20.47 17.5 22 15.9 22 13.93V12.5C22 6.98 17.52 2.5 12 2.5ZM12 15.5C10.34 15.5 9 14.16 9 12.5C9 10.84 10.34 9.5 12 9.5C13.66 9.5 15 10.84 15 12.5C15 14.16 13.66 15.5 12 15.5Z" fill="white"/>
</svg>
