<svg width="16" height="19" viewBox="0 0 16 19" fill="none" xmlns="http://www.w3.org/2000/svg">
<path fill-rule="evenodd" clip-rule="evenodd" d="M15.6818 11.6424L8.76818 18.6763C8.34393 19.1079 7.65607 19.1079 7.23182 18.6763L0.318191 11.6424C-0.106063 11.2108 -0.106063 10.511 0.318191 10.0793C0.742445 9.64772 1.4303 9.64772 1.85455 10.0793L6.91363 15.2264L6.91363 1.08637C6.91363 0.486386 7.40001 3.75917e-07 8 3.49691e-07C8.59999 3.23465e-07 9.08637 0.486387 9.08637 1.08637L9.08637 15.2264L14.1454 10.0793C14.5697 9.64771 15.2576 9.64771 15.6818 10.0793C16.1061 10.511 16.1061 11.2108 15.6818 11.6424Z" fill="#DFEEF8"/>
</svg>
