<svg width="24" height="25" viewBox="0 0 24 25" fill="none" xmlns="http://www.w3.org/2000/svg">
<path opacity="0.3" d="M8 15.5C5.3 15.5 2.2 16.79 2 17.51V18.5H14V17.5C13.8 16.79 10.7 15.5 8 15.5Z" fill="#FFAB00"/>
<path opacity="0.3" d="M8 10.5C9.10457 10.5 10 9.60457 10 8.5C10 7.39543 9.10457 6.5 8 6.5C6.89543 6.5 6 7.39543 6 8.5C6 9.60457 6.89543 10.5 8 10.5Z" fill="#FFAB00"/>
<path d="M22 9.5V7.5H20V9.5H18V11.5H20V13.5H22V11.5H24V9.5H22Z" fill="#FFAB00"/>
<path d="M8 12.5C10.21 12.5 12 10.71 12 8.5C12 6.29 10.21 4.5 8 4.5C5.79 4.5 4 6.29 4 8.5C4 10.71 5.79 12.5 8 12.5ZM8 6.5C9.1 6.5 10 7.4 10 8.5C10 9.6 9.1 10.5 8 10.5C6.9 10.5 6 9.6 6 8.5C6 7.4 6.9 6.5 8 6.5Z" fill="#FFAB00"/>
<path d="M8 13.5C5.33 13.5 0 14.84 0 17.5V20.5H16V17.5C16 14.84 10.67 13.5 8 13.5ZM14 18.5H2V17.51C2.2 16.79 5.3 15.5 8 15.5C10.7 15.5 13.8 16.79 14 17.5V18.5Z" fill="#FFAB00"/>
<path d="M12.51 4.5498C13.43 5.6098 14 6.9898 14 8.4998C14 10.0098 13.43 11.3898 12.51 12.4498C14.47 12.1998 16 10.5398 16 8.4998C16 6.4598 14.47 4.7998 12.51 4.5498Z" fill="#FFAB00"/>
<path d="M16.53 14.3301C17.42 15.1601 18 16.2001 18 17.5001V20.5001H20V17.5001C20 16.0501 18.41 14.9901 16.53 14.3301Z" fill="#FFAB00"/>
</svg>
