<svg width="24" height="24" viewBox="0 0 24 24" fill="none" xmlns="http://www.w3.org/2000/svg">
<path fill-rule="evenodd" clip-rule="evenodd" d="M22.1759 7.02291C22.3243 6.52846 22.1759 6.16504 21.4701 6.16504H19.1362C18.5427 6.16504 18.2693 6.47895 18.121 6.82519C18.121 6.82519 16.934 9.71804 15.2526 11.5971C14.7087 12.1411 14.4614 12.314 14.1647 12.314C14.0163 12.314 13.8016 12.1411 13.8016 11.6467V7.02291C13.8016 6.42943 13.6294 6.16504 13.1348 6.16504H9.46726C9.09651 6.16504 8.87346 6.44044 8.87346 6.7015C8.87346 7.26413 9.71399 7.39383 9.80067 8.9762V12.4132C9.80067 13.1667 9.66464 13.3034 9.36791 13.3034C8.57672 13.3034 6.65227 10.3974 5.51067 7.07242C5.28695 6.4261 5.06257 6.16504 4.4661 6.16504H2.13222C1.4654 6.16504 1.33203 6.47895 1.33203 6.82519C1.33203 7.44334 2.12338 10.5094 5.01622 14.5643C6.94501 17.3333 9.66198 18.8347 12.1346 18.8347C13.6182 18.8347 13.8016 18.5013 13.8016 17.927V15.834C13.8016 15.1671 13.9421 15.0341 14.4118 15.0341C14.7582 15.0341 15.3515 15.2072 16.7363 16.5423C18.3187 18.1245 18.5794 18.8347 19.4696 18.8347H21.8035C22.4703 18.8347 22.8037 18.5013 22.6113 17.8433C22.4009 17.1874 21.6454 16.2362 20.6429 15.1083C20.0989 14.4653 19.2829 13.773 19.0358 13.4269C18.6896 12.9818 18.7884 12.7841 19.0358 12.3887C19.0358 12.3887 21.8792 8.38306 22.1759 7.02307V7.02291Z" fill="white"/>
</svg>
